<?xml version="1.0" encoding="utf-8"?>
<!-- Generator: Adobe Illustrator 16.0.1, SVG Export Plug-In . SVG Version: 6.00 Build 0)  -->
<!DOCTYPE svg PUBLIC "-//W3C//DTD SVG 1.1//EN" "http://www.w3.org/Graphics/SVG/1.1/DTD/svg11.dtd">
<svg version="1.1" id="Layer_1" xmlns="http://www.w3.org/2000/svg" xmlns:xlink="http://www.w3.org/1999/xlink" x="0px" y="0px"
	 width="591.402px" height="578.972px" viewBox="0 0 591.402 578.972" enable-background="new 0 0 591.402 578.972"
	 xml:space="preserve">
<g>
	<g>
		<path fill="#F9923E" d="M20.668,112.828v394.181c4.581,20.914,18.363,46.701,57.486,54.523h492.512V112.828H20.668z"/>
		<path fill="#FFFFFF" d="M542.926,185.929c2.656,0,5.878,3.581,9.665,10.738c3.782,7.162,9.56,10.738,17.334,10.738
			c5.316,0,10.227-2.095,14.729-6.29c4.496-4.189,6.749-9.865,6.749-17.027c0-8.179-2.561-14.622-7.67-19.329
			c-5.115-4.703-11.15-7.057-18.103-7.057c-18.001,0-34.362,10.23-49.089,30.681c-20.048-20.45-45-30.681-74.861-30.681
			c-27.41,0-51.235,8.644-71.484,25.925c-20.25,17.287-30.374,38.61-30.374,63.969c0,31.294,16.36,54.717,49.089,70.259v1.229
			c-42.339,5.113-63.51,27.305-63.51,66.576c0,29.248,16.976,47.963,50.931,56.146c-22.09,12.68-36.31,22.855-42.646,30.527
			c-6.343,7.67-9.512,17.127-9.512,28.379c0,18.408,9.973,34.41,29.914,48.016c19.942,13.6,46.889,20.402,80.843,20.402
			c43.77,0,78.03-10.277,102.781-30.834c24.745-20.557,37.123-45.867,37.123-75.936c0-25.771-6.854-45.613-20.556-59.521
			c-13.706-13.906-31.501-20.863-53.385-20.863l-104.929,4.297c-22.09,0-35.896-1.842-41.419-5.521
			c-5.523-3.682-8.283-9.1-8.283-16.262c0-8.18,5.315-15.9,15.953-23.164c10.633-7.258,19.942-10.893,27.92-10.893
			c0.814,0,7.363,0.566,19.637,1.689c12.271,1.125,21.983,1.688,29.146,1.688l15.34-0.922c14.314,0,32.775-7.209,55.379-21.629
			c22.6-14.42,33.902-35.637,33.902-63.662c0-16.567-6.036-33.336-18.102-50.316C531.982,189.716,537.812,185.929,542.926,185.929
			L542.926,185.929L542.926,185.929z M474.355,183.935c7.671,7.056,11.506,22.655,11.506,46.788c0,38.864-2.147,63.308-6.443,73.327
			c-4.295,10.023-17.08,15.033-38.351,15.033c-20.863,0-33.495-4.908-37.892-14.727c-4.399-9.818-6.597-31.702-6.597-65.657
			c0-23.519,2.35-40.292,7.057-50.316c4.703-10.019,16.977-15.033,36.817-15.033C455.381,173.35,466.685,176.878,474.355,183.935
			L474.355,183.935z M427.26,440.578c8.998-0.205,22.806-0.92,41.419-2.146c18.61-1.229,30.575-1.842,35.896-1.842
			c13.5,0,25.666,3.375,36.51,10.125c10.839,6.75,16.261,16.361,16.261,28.84c0,20.863-10.791,39.064-32.367,54.611
			c-21.581,15.541-48.937,23.318-82.07,23.318c-51.956,0-77.93-19.023-77.93-57.066c0-24.137,9.713-42.34,29.146-54.611
			L427.26,440.578L427.26,440.578z"/>
	</g>
	<path fill="#009ACC" d="M20.428,117.014h12.637v-35.9c2.488,2.969,5.408,5.219,8.76,6.749c3.35,1.53,6.987,2.298,10.914,2.298
		c9.572,0,17.376-3.637,23.407-10.914c6.031-7.274,9.047-16.705,9.047-28.29c0-11.582-2.872-20.869-8.616-27.858
		C70.832,16.111,63.172,12.616,53.6,12.616c-4.692,0-8.712,0.958-12.062,2.872c-3.352,1.916-6.512,4.739-9.478,8.472v-9.765H20.428
		V117.014L20.428,117.014L20.428,117.014z M31.917,52.967c0-9.094,1.889-16.442,5.672-22.042c3.781-5.601,8.735-8.401,14.863-8.401
		c6.031,0,10.842,2.562,14.432,7.683c3.59,5.123,5.385,12.04,5.385,20.75c0,9-1.844,16.108-5.528,21.325
		c-3.687,5.219-8.688,7.826-15.006,7.826c-6.031,0-10.842-2.463-14.432-7.396c-3.59-4.929-5.385-11.56-5.385-19.889L31.917,52.967
		L31.917,52.967z M148.807,79.534c0.19,1.533,0.406,2.85,0.646,3.949c0.238,1.102,0.55,2.179,0.934,3.231
		c0.094,0.384,0.215,0.743,0.359,1.077c0.144,0.337,0.31,0.599,0.502,0.79h13.211c-0.384-0.668-0.696-1.268-0.934-1.795
		c-0.24-0.525-0.456-1.077-0.646-1.651c-0.287-0.575-0.527-1.149-0.718-1.723c-0.193-0.575-0.383-1.292-0.574-2.154
		c-0.097-0.19-0.168-0.406-0.215-0.646c-0.049-0.238-0.072-0.454-0.072-0.646c-0.384-1.817-0.624-4.14-0.718-6.964
		c-0.096-2.823-0.144-8.017-0.144-15.581v-16.66c0-3.733-0.072-6.534-0.215-8.4c-0.143-1.866-0.408-3.518-0.79-4.955
		c-0.097-0.381-0.216-0.765-0.359-1.148c-0.144-0.382-0.265-0.765-0.359-1.149c-1.532-4.115-4.62-7.227-9.262-9.334
		c-4.645-2.105-10.651-3.159-18.022-3.159c-7.373,0-13.57,1.149-18.596,3.446s-8.832,5.601-11.417,9.909
		c-0.193,0.383-0.383,0.742-0.574,1.077c-0.193,0.336-0.384,0.646-0.575,0.934c-0.574,0.958-1.03,2.01-1.364,3.159
		c-0.337,1.149-0.599,2.585-0.79,4.308l12.35,1.723c1.34-5.264,3.422-8.926,6.247-10.985c2.823-2.058,7.203-3.087,13.14-3.087
		c6.222,0,10.77,1.173,13.642,3.518c2.872,2.347,4.308,6.2,4.308,11.56c0,0.096,0,0.24,0,0.431c0,0.193,0,0.431,0,0.718
		c0,0.193,0,0.48,0,0.862c0,0.384-0.049,0.862-0.144,1.436c-1.245,0.193-2.682,0.502-4.308,0.934
		c-1.629,0.431-3.446,0.839-5.457,1.22c-1.819,0.48-3.805,0.886-5.959,1.221c-2.154,0.336-4.429,0.646-6.821,0.934
		c-1.245,0.096-2.347,0.215-3.303,0.359c-0.958,0.144-1.773,0.265-2.441,0.359c-0.767,0.193-1.414,0.336-1.938,0.431
		c-0.527,0.096-1.077,0.193-1.651,0.287c-0.287,0.096-0.599,0.193-0.934,0.287c-0.336,0.097-0.695,0.193-1.077,0.287
		c-5.649,1.533-10.029,4.165-13.139,7.898c-3.112,3.734-4.667,8.186-4.667,13.355c0,6.415,2.297,11.513,6.893,15.293
		c4.595,3.783,10.77,5.672,18.524,5.672c3.925,0,7.611-0.456,11.058-1.364c3.447-0.908,6.843-2.464,10.195-4.667
		c0.956-0.574,1.961-1.268,3.016-2.082c1.053-0.812,2.105-1.699,3.16-2.657v0.142H148.807z M147.658,51.244v4.883
		c0,4.213-0.336,7.539-1.005,9.98c-0.671,2.441-1.916,4.716-3.733,6.821c-0.097,0.097-0.215,0.216-0.359,0.359
		c-0.144,0.144-0.265,0.265-0.359,0.359c-2.107,2.204-4.691,3.902-7.754,5.098c-3.065,1.198-6.415,1.795-10.052,1.795
		c-4.595,0-8.257-1.053-10.985-3.159c-2.729-2.105-4.093-4.977-4.093-8.616c0-3.734,1.292-6.557,3.877-8.473
		c2.585-1.914,7.227-3.303,13.929-4.164c3.637-0.478,7.012-1.053,10.124-1.724c3.11-0.668,5.767-1.387,7.97-2.154
		c0.478-0.094,0.909-0.238,1.292-0.431C146.89,51.628,147.274,51.437,147.658,51.244L147.658,51.244L147.658,51.244z
		 M179.823,117.014h12.637v-35.9c2.488,2.969,5.408,5.219,8.76,6.749c3.35,1.53,6.987,2.298,10.914,2.298
		c9.572,0,17.376-3.637,23.407-10.914c6.031-7.274,9.047-16.705,9.047-28.29c0-11.582-2.872-20.869-8.616-27.858
		c-5.744-6.987-13.404-10.483-22.976-10.483c-4.692,0-8.712,0.958-12.062,2.872c-3.352,1.916-6.511,4.739-9.478,8.472v-9.765
		h-11.632L179.823,117.014L179.823,117.014L179.823,117.014z M191.311,52.967c0-9.094,1.89-16.442,5.672-22.042
		c3.781-5.601,8.735-8.401,14.863-8.401c6.031,0,10.842,2.562,14.432,7.683c3.59,5.123,5.385,12.04,5.385,20.75
		c0,9-1.844,16.108-5.529,21.325c-3.687,5.219-8.688,7.826-15.006,7.826c-6.031,0-10.842-2.463-14.432-7.396
		c-3.59-4.929-5.385-11.56-5.385-19.889V52.967L191.311,52.967z M310.499,64.886c-1.532,5.17-3.974,9-7.323,11.488
		c-3.353,2.491-7.467,3.733-12.35,3.733c-6.511,0-11.753-2.237-15.724-6.711c-3.974-4.474-6.2-10.66-6.678-18.562h55.574
		c0-0.765,0-1.436,0-2.011c0-0.574,0-1.052,0-1.436c0-11.775-3.064-21.181-9.189-28.217c-6.129-7.037-14.36-10.555-24.7-10.555
		c-10.627,0-19.077,3.567-25.346,10.698c-6.271,7.133-9.406,16.779-9.406,28.936c0,11.872,3.159,21.159,9.478,27.858
		c6.318,6.702,14.981,10.052,25.992,10.052c8.52,0,15.581-2.01,21.181-6.031c5.602-4.021,9.453-9.956,11.561-17.807l-13.067-1.58
		v0.145H310.499z M269.142,44.208c0.381-6.274,2.535-11.36,6.462-15.26c3.924-3.899,8.807-5.849,14.647-5.849
		c4.115,0,7.897,1.077,11.345,3.231c3.446,2.154,5.838,5.051,7.18,8.688c0.19,0.48,0.359,0.911,0.504,1.292
		c0.144,0.384,0.262,0.768,0.357,1.149c0.287,0.768,0.525,1.58,0.719,2.441c0.19,0.861,0.287,1.963,0.287,3.303
		c0,0.096,0,0.193,0,0.287c0,0.097,0,0.193,0,0.287c0,0.097,0,0.24,0,0.431H269.142L269.142,44.208L269.142,44.208L269.142,44.208z
		 M338.788,88.581h12.637v-38.86c0-7.772,1.222-13.745,3.662-17.919c2.44-4.173,5.959-6.262,10.556-6.262
		c1.625,0,3.205,0.215,4.737,0.646c1.53,0.431,3.062,1.077,4.597,1.938l4.308-11.344c-1.245-1.053-2.609-1.89-4.093-2.513
		c-1.485-0.622-2.943-1.028-4.381-1.221c-0.767-0.191-1.508-0.31-2.226-0.359c-0.718-0.047-1.461-0.072-2.226-0.072
		c-2.203,0-4.166,0.383-5.889,1.149c-1.724,0.767-3.398,2.106-5.025,4.021c-0.861,0.958-1.723,2.082-2.586,3.375
		c-0.86,1.292-1.771,2.753-2.729,4.38V14.195h-11.344L338.788,88.581L338.788,88.581L338.788,88.581z"/>
</g>
</svg>
